<svg width="360" height="360" viewBox="0 0 360 360" fill="none" xmlns="http://www.w3.org/2000/svg">
<path d="M305.431 94.7736L303.682 91.8936C289.627 69.0264 264.319 55.1736 237.506 56.5344C233.735 56.7225 229.985 57.2039 226.289 57.9744C201.629 63.1872 180.173 81.6048 171.274 105.185C166.046 119.052 164.585 135.022 154.656 146.03C141.739 160.358 119.808 160.812 100.526 160.214C81.2448 159.617 59.2992 160.128 46.44 174.514C38.3904 183.6 35.8344 196.373 36.4824 208.44C38.2032 240.379 60.7392 268.92 89.4024 283.133C118.066 297.346 151.819 298.606 183.19 292.356C227.11 283.608 268.927 259.589 294.07 222.48C319.212 185.371 325.534 134.82 305.431 94.7736Z" fill="#EBEBEB"/>
<path d="M338.76 290.714C338.76 290.815 267.674 290.902 180.007 290.902C92.34 290.902 21.24 290.815 21.24 290.714C21.24 290.614 92.3112 290.527 180.007 290.527C267.703 290.527 338.76 290.614 338.76 290.714Z" fill="#263238"/>
<path d="M233.222 185.443C232.934 186.674 226.807 242.46 226.807 242.46L221.263 250.344L219.758 262.411L231.278 290.902H146.045C146.045 290.902 144.698 275.846 144.814 271.822C144.929 267.797 146.974 253.03 146.974 253.03L146.779 238.032L143.554 172.663L172.426 163.346C189.871 160.344 215.546 173.426 215.546 173.426L233.222 185.443Z" fill="#01B3EB" fill-opacity="0.99"/>
<path d="M222.149 143.863C225.943 143.626 228.852 140.458 230.94 137.282C232.898 134.316 234.54 130.99 234.583 127.44C234.583 124.358 233.374 121.421 232.164 118.584C230.954 115.747 229.651 112.709 227.7 110.21C225.749 107.712 222.984 105.682 219.83 105.293" fill="#263238"/>
<path d="M177.797 158.731L177.84 157.788L180.065 103.32L181.296 100.231L208.541 96.48C210.653 96.3154 212.777 96.5806 214.784 97.2595C216.791 97.9384 218.639 99.0169 220.218 100.43C221.797 101.843 223.072 103.561 223.969 105.481C224.865 107.401 225.363 109.482 225.432 111.6C225.778 121.514 225.821 133.632 224.438 140.983C221.674 155.729 210.24 157.306 210.24 157.306C210.24 157.306 210.046 161.172 209.83 166.766C209.671 170.986 205.942 183.161 201.715 183.283C199.901 183.334 194.947 181.757 192.586 181.411C177.689 179.237 177.797 158.731 177.797 158.731Z" fill="#FFBE9D"/>
<path d="M220.399 120.197C220.392 120.693 220.19 121.167 219.838 121.517C219.485 121.867 219.009 122.065 218.513 122.069C218.27 122.081 218.027 122.045 217.799 121.962C217.57 121.88 217.36 121.752 217.182 121.587C217.003 121.422 216.86 121.223 216.759 121.001C216.659 120.78 216.604 120.541 216.598 120.298C216.605 119.801 216.807 119.327 217.159 118.977C217.512 118.627 217.987 118.429 218.484 118.426C218.727 118.413 218.97 118.449 219.198 118.532C219.427 118.615 219.637 118.742 219.815 118.907C219.994 119.072 220.137 119.272 220.238 119.493C220.338 119.714 220.393 119.954 220.399 120.197Z" fill="#263238"/>
<path d="M222.631 117.785C222.386 118.03 220.975 116.921 218.923 116.87C216.871 116.82 215.323 117.799 215.129 117.54C215.021 117.432 215.273 116.986 215.942 116.532C216.845 115.939 217.909 115.642 218.988 115.682C220.055 115.708 221.086 116.071 221.933 116.719C222.545 117.223 222.746 117.677 222.631 117.785Z" fill="#263238"/>
<path d="M200.347 120.002C200.34 120.499 200.138 120.973 199.786 121.323C199.433 121.673 198.958 121.871 198.461 121.874C198.218 121.887 197.975 121.851 197.747 121.768C197.518 121.685 197.308 121.558 197.13 121.393C196.951 121.228 196.808 121.028 196.707 120.807C196.607 120.586 196.552 120.346 196.546 120.103C196.553 119.607 196.755 119.133 197.107 118.783C197.46 118.433 197.935 118.235 198.432 118.231C198.675 118.219 198.918 118.255 199.146 118.338C199.375 118.42 199.585 118.548 199.763 118.713C199.942 118.878 200.085 119.077 200.186 119.299C200.286 119.52 200.341 119.759 200.347 120.002Z" fill="#263238"/>
<path d="M202.478 117.612C202.234 117.857 200.815 116.748 198.77 116.698C196.726 116.647 195.17 117.626 194.976 117.367C194.868 117.259 195.12 116.813 195.79 116.359C196.691 115.765 197.756 115.468 198.835 115.51C199.902 115.535 200.933 115.898 201.78 116.546C202.392 117.05 202.594 117.504 202.478 117.612Z" fill="#263238"/>
<path d="M209.52 133.013C209.52 132.898 210.794 132.71 212.868 132.509C213.394 132.466 213.89 132.372 213.991 132.019C214.047 131.479 213.939 130.935 213.682 130.457L212.242 126.432C210.254 120.672 208.822 115.992 209.059 115.913C209.297 115.834 211.09 120.42 213.084 126.151C213.559 127.591 214.02 128.909 214.452 130.198C214.766 130.839 214.843 131.571 214.668 132.264C214.585 132.442 214.462 132.599 214.31 132.724C214.158 132.848 213.98 132.937 213.79 132.984C213.497 133.054 213.197 133.085 212.897 133.078C210.787 133.157 209.52 133.128 209.52 133.013Z" fill="#263238"/>
<path d="M210.24 157.306C203.244 157.218 196.41 155.192 190.498 151.452C190.498 151.452 195.041 161.784 209.938 160.812L210.24 157.306Z" fill="#EB996E"/>
<path d="M208.49 137.93C208.112 137.433 207.614 137.04 207.042 136.788C206.47 136.536 205.844 136.434 205.222 136.49C204.768 136.519 204.324 136.638 203.918 136.841C203.511 137.044 203.149 137.326 202.853 137.671C202.573 138.008 202.401 138.421 202.362 138.857C202.322 139.293 202.415 139.73 202.63 140.112C202.952 140.484 203.377 140.751 203.852 140.879C204.326 141.007 204.828 140.991 205.294 140.832C206.272 140.518 207.178 140.011 207.958 139.342C208.193 139.185 208.395 138.984 208.555 138.751C208.632 138.639 208.673 138.506 208.673 138.37C208.673 138.233 208.632 138.1 208.555 137.988" fill="#EB996E"/>
<path d="M203.422 134.266C203.76 134.266 203.702 136.476 205.582 138.11C207.461 139.745 209.815 139.55 209.83 139.874C209.83 140.011 209.29 140.292 208.282 140.292C206.979 140.276 205.724 139.799 204.739 138.946C203.792 138.128 203.2 136.974 203.09 135.727C203.04 134.791 203.27 134.251 203.422 134.266Z" fill="#263238"/>
<path d="M203.227 109.598C203.011 110.146 200.974 109.829 198.562 110.052C196.15 110.275 194.184 110.873 193.882 110.369C193.745 110.124 194.098 109.649 194.897 109.094C195.961 108.462 197.155 108.08 198.389 107.978C199.623 107.876 200.864 108.056 202.018 108.504C202.889 108.886 203.321 109.332 203.227 109.598Z" fill="#263238"/>
<path d="M222.041 111.83C221.666 112.291 220.27 111.766 218.57 111.701C216.871 111.636 215.424 111.924 215.107 111.427C214.97 111.19 215.208 110.707 215.827 110.304C216.686 109.8 217.676 109.562 218.67 109.619C219.664 109.677 220.619 110.028 221.414 110.628C222.019 111.125 222.206 111.6 222.041 111.83Z" fill="#263238"/>
<path d="M177.653 119.966C174.761 121.739 172.225 124.034 170.172 126.734C167.81 129.694 166.277 133.524 166.867 137.268C167.681 142.459 172.181 146.146 176.364 149.328C178.769 149.674 180.562 147.017 180.936 144.612C181.31 142.207 180.979 139.608 182.117 137.455C183.139 135.526 185.155 134.345 186.502 132.624C189.007 129.427 188.842 124.927 188.23 120.91C187.618 116.892 188.23 110.83 193.392 105.07C193.392 105.12 180.835 110.023 177.653 119.966Z" fill="#263238"/>
<path d="M173.203 133.337C175.363 130.219 174.816 125.647 172.318 122.76C169.819 119.873 165.787 118.62 161.986 118.944C159.221 119.182 156.42 120.269 154.634 122.393C152.849 124.517 152.309 127.793 153.792 130.14C154.613 131.436 156.038 132.66 155.714 134.165C155.39 135.67 153.684 136.152 152.474 137.002C151.435 137.782 150.668 138.869 150.28 140.109C149.893 141.35 149.905 142.68 150.314 143.914C150.762 145.131 151.51 146.215 152.487 147.067C153.465 147.919 154.642 148.511 155.909 148.788C158.47 149.305 161.133 148.826 163.354 147.449C163.354 149.76 165.838 151.524 168.134 151.33C170.431 151.135 172.382 149.458 173.614 147.506C175.268 144.675 176.054 141.42 175.874 138.146C175.694 134.889 175.195 131.658 174.384 128.498" fill="#263238"/>
<path d="M177.005 150.034C176.883 149.977 176.769 149.904 176.666 149.818L175.73 149.141C174.931 148.543 173.772 147.701 172.426 146.491C170.822 145.123 169.406 143.549 168.214 141.811C166.737 139.658 165.882 137.139 165.744 134.532C165.682 133.178 165.895 131.826 166.37 130.558C166.833 129.382 167.518 128.307 168.386 127.39C169.891 125.919 171.552 124.618 173.34 123.509C174.514 122.738 175.632 121.886 176.688 120.96C177.055 120.622 177.329 120.348 177.509 120.154C177.595 120.052 177.691 119.96 177.797 119.88C177.797 119.88 177.725 120.002 177.559 120.204C177.323 120.508 177.066 120.794 176.789 121.061C175.765 122.041 174.662 122.934 173.491 123.732C171.744 124.862 170.117 126.17 168.638 127.634C167.807 128.521 167.154 129.56 166.716 130.694C166.264 131.919 166.06 133.221 166.118 134.525C166.249 137.061 167.065 139.515 168.48 141.624C169.646 143.348 171.025 144.918 172.584 146.297C173.902 147.492 175.032 148.392 175.802 149.026L176.688 149.746C176.804 149.83 176.91 149.927 177.005 150.034Z" fill="#455A64"/>
<path d="M166.421 131.242C166.356 131.278 165.982 130.478 165.031 129.47C163.815 128.136 162.228 127.194 160.474 126.764C158.72 126.334 156.877 126.437 155.182 127.058C153.878 127.519 153.173 128.045 153.137 127.987C153.101 127.93 153.281 127.822 153.605 127.591C154.071 127.279 154.568 127.016 155.088 126.806C156.825 126.098 158.741 125.958 160.563 126.404C162.385 126.85 164.019 127.86 165.233 129.29C165.6 129.715 165.918 130.178 166.183 130.673C166.295 130.847 166.375 131.04 166.421 131.242Z" fill="#455A64"/>
<path d="M154.865 135.187C154.822 135.187 155.088 134.467 156.06 133.862C156.627 133.526 157.252 133.302 157.903 133.2C158.687 133.079 159.48 133.034 160.272 133.063C161.706 133.102 163.129 133.327 164.506 133.733C165.085 133.865 165.639 134.089 166.147 134.395C165.569 134.29 164.997 134.153 164.434 133.985C163.063 133.664 161.664 133.481 160.258 133.438C158.868 133.305 157.467 133.53 156.19 134.093C155.694 134.387 155.247 134.756 154.865 135.187Z" fill="#455A64"/>
<path d="M152.388 146.952C152.388 146.887 153.418 146.909 155.038 146.592C157.138 146.185 159.131 145.346 160.891 144.13C162.634 142.89 164.104 141.307 165.211 139.478C166.061 138.074 166.399 137.095 166.464 137.124C166.433 137.372 166.368 137.614 166.27 137.844C166.04 138.462 165.763 139.061 165.442 139.637C164.377 141.551 162.891 143.198 161.096 144.453C159.301 145.708 157.244 146.538 155.081 146.88C154.431 146.982 153.773 147.032 153.115 147.031C152.87 147.048 152.624 147.021 152.388 146.952Z" fill="#455A64"/>
<path d="M167.141 131.04C167.141 131.004 167.58 131.429 168.487 131.926C169.787 132.603 171.243 132.921 172.706 132.847C173.709 132.812 174.699 132.622 175.644 132.286C176.727 131.88 177.738 131.304 178.639 130.579C180.675 128.865 182.295 126.711 183.377 124.279C184.443 121.83 185.357 119.317 186.113 116.755C186.753 114.653 187.552 112.602 188.503 110.621C189.151 109.284 189.956 108.03 190.901 106.884C191.239 106.488 191.52 106.164 191.722 105.998C191.818 105.897 191.924 105.806 192.038 105.725C192.038 105.725 191.65 106.157 191.016 106.978C190.125 108.145 189.363 109.405 188.741 110.736C187.828 112.72 187.061 114.768 186.444 116.863C185.703 119.445 184.791 121.976 183.715 124.438C182.612 126.925 180.946 129.121 178.848 130.853C177.916 131.591 176.87 132.172 175.752 132.574C174.774 132.914 173.749 133.096 172.714 133.114C171.202 133.171 169.705 132.802 168.394 132.048C168.187 131.938 167.992 131.807 167.81 131.659C167.669 131.563 167.537 131.455 167.414 131.335C167.314 131.246 167.223 131.147 167.141 131.04Z" fill="#455A64"/>
<path d="M188.273 117.662C188.309 117.662 188.014 118.094 187.682 118.937C187.256 120.139 187.014 121.399 186.962 122.674C186.924 124.59 186.71 126.499 186.322 128.376C185.682 130.675 184.368 132.729 182.549 134.273C180.749 135.847 178.5 136.816 176.119 137.045C174.188 137.212 172.245 136.913 170.453 136.174C169.25 135.684 168.14 134.992 167.17 134.129C166.914 133.905 166.674 133.664 166.45 133.409C166.362 133.322 166.285 133.225 166.219 133.121C166.255 133.121 166.579 133.481 167.285 134.042C168.272 134.853 169.383 135.499 170.575 135.958C172.335 136.644 174.232 136.908 176.112 136.728C178.415 136.489 180.586 135.541 182.326 134.014C184.091 132.519 185.374 130.535 186.012 128.311C186.414 126.459 186.654 124.575 186.732 122.681C186.812 121.386 187.098 120.112 187.582 118.908C187.726 118.586 187.894 118.276 188.086 117.979C188.136 117.867 188.198 117.76 188.273 117.662Z" fill="#455A64"/>
<path d="M230.94 136.318C230.94 136.318 231.185 136.094 231.566 135.655C232.115 135.034 232.542 134.316 232.826 133.538C233.25 132.388 233.425 131.161 233.338 129.938C233.209 128.433 232.791 126.966 232.106 125.618C230.666 122.738 228.722 120.528 227.434 118.843C226.922 118.174 226.455 117.472 226.037 116.741C225.868 116.48 225.733 116.2 225.634 115.906C225.833 116.142 226.009 116.398 226.159 116.669C226.483 117.158 226.98 117.857 227.642 118.678C228.967 120.312 230.99 122.508 232.445 125.453C233.149 126.834 233.57 128.342 233.683 129.888C233.759 131.156 233.552 132.425 233.078 133.603C232.747 134.399 232.257 135.119 231.638 135.72C231.474 135.879 231.299 136.026 231.113 136.159C231.019 136.289 230.947 136.332 230.94 136.318Z" fill="#455A64"/>
<path d="M228.809 140.537C229.523 139.768 230.122 138.9 230.587 137.959C231.053 136.927 231.298 135.809 231.307 134.676C231.307 133.287 231.022 131.912 230.472 130.637C229.899 129.356 229.25 128.111 228.528 126.907C227.902 125.77 227.362 124.747 226.922 123.847C226.483 122.947 226.152 122.249 225.936 121.745C225.803 121.49 225.704 121.219 225.641 120.938C225.804 121.165 225.946 121.406 226.066 121.658L227.16 123.703C227.628 124.567 228.19 125.59 228.83 126.72C229.577 127.924 230.241 129.177 230.818 130.471C231.388 131.794 231.672 133.222 231.653 134.662C231.625 135.837 231.347 136.993 230.839 138.053C230.49 138.76 230.031 139.406 229.478 139.968C229.328 140.118 229.169 140.26 229.003 140.393C228.881 140.501 228.816 140.544 228.809 140.537Z" fill="#455A64"/>
<path d="M176.947 121.874C181.879 113.458 188.777 105.631 198.266 103.363C202.898 102.219 207.716 102.035 212.421 102.824C217.127 103.613 221.621 105.357 225.626 107.95V91.3536L213.782 53.1216L204.559 48.24L182.758 60.7104L177.12 106.697L176.947 121.874Z" fill="#01B3EB" fill-opacity="0.99"/>
<g opacity="0.7">
<path opacity="0.7" d="M176.947 121.874C181.879 113.458 188.777 105.631 198.266 103.363C202.898 102.219 207.716 102.035 212.421 102.824C217.127 103.613 221.621 105.357 225.626 107.95V91.3536L213.782 53.1216L204.559 48.24L182.758 60.7104L177.12 106.697L176.947 121.874Z" fill="white"/>
</g>
<path d="M225.173 91.9584C224.99 91.8947 224.814 91.8127 224.647 91.7136C224.309 91.548 223.834 91.26 223.207 90.9936C221.393 90.1093 219.498 89.4005 217.548 88.8768C214.659 88.0947 211.685 87.6668 208.692 87.6024C206.926 87.5619 205.159 87.6268 203.4 87.7968C201.514 87.9376 199.649 88.2779 197.834 88.812C194.354 89.958 191.06 91.6075 188.057 93.708C185.589 95.3966 183.354 97.4035 181.411 99.6768C180.108 101.225 178.985 102.915 178.063 104.717C177.79 105.343 177.566 105.84 177.394 106.214C177.328 106.396 177.244 106.569 177.142 106.733C177.187 106.547 177.249 106.366 177.329 106.193C177.466 105.84 177.653 105.314 177.934 104.652C178.812 102.815 179.91 101.092 181.202 99.5184C183.14 97.2016 185.38 95.1554 187.862 93.4344C190.884 91.296 194.209 89.6215 197.726 88.4664C199.567 87.9281 201.459 87.5854 203.371 87.444C205.142 87.2773 206.921 87.2195 208.699 87.2712C211.718 87.3531 214.714 87.8102 217.62 88.632C219.576 89.1842 221.47 89.937 223.272 90.8784C223.92 91.188 224.388 91.4976 224.712 91.6848C224.872 91.7639 225.027 91.8553 225.173 91.9584Z" fill="#263238"/>
<path d="M210.766 87.516C210.665 87.516 209.117 78.7968 207.317 68.004C205.517 57.2112 204.134 48.4488 204.235 48.4344C204.336 48.42 205.884 57.1536 207.684 67.9464C209.484 78.7392 210.866 87.5016 210.766 87.516Z" fill="#263238"/>
<path d="M196.315 89.0928C196.214 89.0928 196.373 80.8056 196.682 70.5816C196.992 60.3576 197.316 52.0776 197.402 52.0776C197.489 52.0776 197.338 60.372 197.035 70.596C196.733 80.82 196.423 89.1 196.315 89.0928Z" fill="#263238"/>
<path d="M184.018 95.9832C184 95.8518 184 95.7186 184.018 95.5872C184.018 95.2848 184.018 94.9104 184.061 94.4568C184.111 93.4776 184.205 92.052 184.342 90.3024C184.615 86.8032 185.062 81.9648 185.782 76.6224C186.502 71.28 187.222 66.5424 187.79 63.0432C188.093 61.308 188.352 59.9112 188.554 58.9464C188.647 58.5 188.726 58.14 188.784 57.8448C188.801 57.713 188.838 57.5845 188.892 57.4632C188.908 57.5947 188.908 57.7277 188.892 57.8592C188.842 58.1544 188.791 58.5216 188.726 58.9752C188.568 59.9976 188.345 61.3872 188.086 63.0864C187.546 66.5568 186.854 71.3592 186.185 76.6728C185.515 81.9864 184.997 86.8104 184.658 90.3024C184.493 92.016 184.356 93.4128 184.262 94.4424C184.212 94.9032 184.176 95.2704 184.14 95.5728C184.119 95.7148 184.078 95.8531 184.018 95.9832Z" fill="#263238"/>
<path d="M212.868 90.3168C212.927 90.872 212.927 91.432 212.868 91.9872C212.782 93.1536 212.681 94.5 212.573 95.9904C212.465 97.4808 212.357 98.8272 212.27 99.9936C212.26 100.551 212.19 101.107 212.062 101.65C211.974 101.097 211.955 100.536 212.004 99.9792C212.004 98.9496 212.083 97.5312 212.198 95.9616C212.314 94.392 212.465 92.9808 212.602 91.9584C212.627 91.4027 212.716 90.8519 212.868 90.3168Z" fill="#263238"/>
<path d="M144.158 254.052C143.251 252.727 140.81 251.546 139.212 251.374C133.682 250.769 128.642 253.152 124.279 256.608L123.422 258.17C121.075 259.999 118.627 262.087 117.9 264.974C117.235 267.982 116.899 271.053 116.899 274.133C116.968 275.768 117.631 277.322 118.764 278.503C119.807 279.658 121.258 280.363 122.81 280.469C125.746 280.697 128.683 280.04 131.242 278.582C133.783 277.12 136.026 275.19 137.851 272.894C141.259 268.729 143.575 263.78 144.59 258.494C144.878 257.04 145.022 255.326 144.158 254.052Z" fill="#01B3EB" fill-opacity="0.99"/>
<g opacity="0.4">
<path opacity="0.4" d="M144.158 254.052C143.251 252.727 140.81 251.546 139.212 251.374C133.682 250.769 128.642 253.152 124.279 256.608L123.422 258.17C121.075 259.999 118.627 262.087 117.9 264.974C117.235 267.982 116.899 271.053 116.899 274.133C116.968 275.768 117.631 277.322 118.764 278.503C119.807 279.658 121.258 280.363 122.81 280.469C125.746 280.697 128.683 280.04 131.242 278.582C133.783 277.12 136.026 275.19 137.851 272.894C141.259 268.729 143.575 263.78 144.59 258.494C144.878 257.04 145.022 255.326 144.158 254.052Z" fill="black"/>
</g>
<path d="M143.561 172.663C142.69 172.951 99.54 234.108 98.3808 238.183C97.2216 242.258 90.9072 251.942 99.8208 261.036C105.349 266.635 111.242 271.862 117.461 276.682C115.459 261.266 130.63 248.839 141.221 252.065L133.121 246.571L151.632 221.983" fill="#01B3EB" fill-opacity="0.99"/>
<path d="M233.222 185.443C233.222 185.443 240.012 193.932 241.704 199.426C243.144 204.12 250.848 225.842 250.848 225.842L264.866 260.582C264.866 260.582 262.706 263.65 262.224 266.249C262.022 267.286 260.244 283.248 255.996 290.009L233.51 279.929L230.674 259.805L226.8 242.46L230.803 195.768L233.222 185.443Z" fill="#01B3EB" fill-opacity="0.99"/>
<path d="M170.114 163.836C170.114 163.836 175.874 158.522 177.473 157.774C177.473 157.774 179.302 164.016 184.673 166.968C190.044 169.92 193.507 173.102 193.507 173.527V181.267C193.507 181.267 171.497 175.255 170.114 163.836Z" fill="#01B3EB" fill-opacity="0.99"/>
<path d="M173.794 203.213L216.562 200.628L214.56 176.198L212.724 172.08L209.844 166.882C209.696 168.639 208.987 170.303 207.821 171.626C205.466 174.015 202.431 175.62 199.13 176.22L198.288 181.26L176.616 172.31C176.616 172.31 173.794 201.83 173.794 202.507" fill="#01B3EB" fill-opacity="0.99"/>
<path d="M199.116 176.198C199.127 176.309 199.127 176.419 199.116 176.53C199.08 176.767 199.03 177.091 198.972 177.502C198.833 178.38 198.636 179.64 198.382 181.282V181.346H198.31L180.72 181.886L177.84 181.966L176.335 182.009C175.848 181.995 175.362 182.058 174.895 182.196C174.423 182.36 173.994 182.63 173.641 182.984C173.288 183.338 173.02 183.768 172.858 184.241C172.7 184.736 172.643 185.257 172.692 185.774C172.692 186.322 172.692 186.869 172.692 187.416C172.786 191.822 172.886 196.488 172.987 201.312C173.318 214.834 173.527 227.081 173.462 235.944C173.462 240.379 173.39 243.965 173.333 246.442C173.297 247.658 173.275 248.602 173.254 249.322C173.254 249.631 173.254 249.876 173.254 250.042C173.263 250.125 173.263 250.21 173.254 250.294C173.243 250.21 173.243 250.125 173.254 250.042C173.254 249.854 173.254 249.61 173.254 249.322C173.254 248.645 173.254 247.687 173.254 246.442C173.254 243.943 173.254 240.365 173.254 235.951C173.254 227.088 173.002 214.848 172.67 201.326C172.577 196.502 172.483 191.837 172.39 187.43V185.789C172.347 185.232 172.413 184.672 172.584 184.14C172.763 183.617 173.06 183.141 173.45 182.75C173.84 182.358 174.315 182.06 174.838 181.879C175.345 181.731 175.872 181.665 176.4 181.685L177.898 181.649L180.778 181.577L198.374 181.188L198.295 181.26C198.583 179.623 198.804 178.368 198.958 177.494L199.145 176.53C199.127 176.42 199.118 176.309 199.116 176.198Z" fill="#263238"/>
<path d="M177.66 192.528C178.67 192.528 179.489 191.709 179.489 190.699C179.489 189.689 178.67 188.87 177.66 188.87C176.65 188.87 175.831 189.689 175.831 190.699C175.831 191.709 176.65 192.528 177.66 192.528Z" fill="#263238"/>
<path d="M187.92 188.734C187.92 188.849 185.861 189.115 183.355 189.698C180.85 190.282 178.87 190.944 178.834 190.843C180.233 190.132 181.726 189.622 183.269 189.331C184.784 188.92 186.35 188.719 187.92 188.734Z" fill="#263238"/>
<path d="M184.817 192.37C183.74 192.204 182.673 191.981 181.62 191.7C180.543 191.536 179.476 191.313 178.423 191.03C180.629 190.981 182.816 191.439 184.817 192.37Z" fill="#263238"/>
<path d="M177.66 213.206C178.67 213.206 179.489 212.388 179.489 211.378C179.489 210.368 178.67 209.549 177.66 209.549C176.65 209.549 175.831 210.368 175.831 211.378C175.831 212.388 176.65 213.206 177.66 213.206Z" fill="#263238"/>
<path d="M187.92 209.419C187.92 209.527 185.861 209.794 183.355 210.377C180.85 210.96 178.87 211.622 178.834 211.522C180.232 210.81 181.726 210.303 183.269 210.017C184.784 209.601 186.349 209.4 187.92 209.419Z" fill="#263238"/>
<path d="M184.817 213.048C183.74 212.883 182.673 212.659 181.62 212.378C180.543 212.215 179.476 211.991 178.423 211.709C180.629 211.66 182.816 212.118 184.817 213.048Z" fill="#263238"/>
<path d="M177.66 233.892C178.67 233.892 179.489 233.073 179.489 232.063C179.489 231.053 178.67 230.234 177.66 230.234C176.65 230.234 175.831 231.053 175.831 232.063C175.831 233.073 176.65 233.892 177.66 233.892Z" fill="#263238"/>
<path d="M187.92 230.098C187.92 230.206 185.861 230.472 183.355 231.055C180.85 231.638 178.87 232.301 178.834 232.2C180.232 231.489 181.726 230.982 183.269 230.695C184.784 230.279 186.349 230.078 187.92 230.098Z" fill="#263238"/>
<path d="M184.817 233.726C183.74 233.561 182.673 233.338 181.62 233.057C180.543 232.893 179.476 232.67 178.423 232.387C179.524 232.301 180.632 232.404 181.699 232.69C182.791 232.852 183.845 233.203 184.817 233.726Z" fill="#263238"/>
<path d="M149.04 227.52C149.055 227.342 149.088 227.165 149.141 226.994C149.227 226.62 149.35 226.13 149.501 225.518C149.818 224.23 150.293 222.379 150.833 220.082C151.373 217.786 151.97 215.042 152.438 211.946C152.961 208.613 153.183 205.239 153.101 201.866C152.984 198.49 152.407 195.144 151.387 191.923C150.561 189.292 149.363 186.793 147.83 184.5C146.799 182.954 145.59 181.533 144.23 180.266C143.77 179.798 143.345 179.503 143.093 179.266C142.95 179.158 142.819 179.035 142.704 178.898C142.855 178.988 143 179.089 143.136 179.201C143.41 179.424 143.856 179.705 144.331 180.158C145.74 181.396 146.99 182.804 148.054 184.349C149.632 186.647 150.869 189.162 151.726 191.815C152.771 195.064 153.363 198.441 153.482 201.852C153.563 205.256 153.322 208.66 152.762 212.018C152.28 215.114 151.646 217.865 151.078 220.162C150.509 222.458 149.99 224.302 149.638 225.576C149.465 226.181 149.321 226.67 149.213 227.016C149.167 227.188 149.109 227.356 149.04 227.52Z" fill="#263238"/>
<path d="M148.32 226.901C148.211 226.589 148.129 226.269 148.075 225.943C147.938 225.324 147.78 224.417 147.614 223.286C147.197 220.346 147.007 217.378 147.046 214.409C147.089 211.438 147.363 208.474 147.866 205.546C148.061 204.43 148.248 203.522 148.406 202.91C148.465 202.583 148.557 202.262 148.68 201.953C148.668 202.285 148.624 202.615 148.55 202.939C148.435 203.558 148.291 204.466 148.133 205.589C147.703 208.513 147.462 211.461 147.413 214.416C147.379 217.368 147.533 220.318 147.874 223.25C148.003 224.381 148.118 225.288 148.212 225.914C148.285 226.238 148.322 226.569 148.32 226.901Z" fill="#263238"/>
<path d="M107.388 245.664C107.753 245.543 108.126 245.45 108.504 245.383C109.501 245.092 110.465 244.701 111.384 244.217C112.558 243.612 113.89 242.777 115.409 241.862C117.032 240.811 118.832 240.062 120.722 239.652C122.66 239.339 124.646 239.665 126.382 240.581C127.772 241.321 129.055 242.247 130.198 243.331C130.967 244.046 131.689 244.811 132.358 245.621C132.625 245.908 132.866 246.219 133.078 246.55C132.79 246.293 132.521 246.016 132.271 245.722C131.559 244.964 130.81 244.243 130.025 243.562C128.877 242.524 127.602 241.636 126.23 240.919C124.556 240.054 122.647 239.751 120.787 240.055C118.938 240.461 117.175 241.193 115.582 242.215C114.062 243.094 112.702 243.922 111.499 244.505C110.552 244.977 109.551 245.335 108.518 245.57C108.235 245.629 107.949 245.673 107.662 245.7C107.569 245.699 107.477 245.687 107.388 245.664Z" fill="#263238"/>
<path d="M122.299 230.681C122.538 230.739 122.768 230.829 122.983 230.947C123.25 231.052 123.508 231.18 123.754 231.329C124.09 231.509 124.416 231.706 124.733 231.919C125.564 232.465 126.343 233.086 127.058 233.777C128.819 235.471 130.188 237.531 131.069 239.81C131.43 240.743 131.703 241.707 131.882 242.69C131.957 243.064 132.012 243.441 132.048 243.821C132.086 244.105 132.105 244.391 132.106 244.678C132.141 244.916 132.141 245.159 132.106 245.398C132.034 245.398 132.005 244.354 131.645 242.726C131.43 241.776 131.139 240.844 130.774 239.94C130.308 238.842 129.746 237.787 129.096 236.786C128.429 235.8 127.672 234.877 126.835 234.029C126.145 233.34 125.398 232.709 124.603 232.142C123.221 231.17 122.27 230.746 122.299 230.681Z" fill="#263238"/>
<g opacity="0.4">
<path opacity="0.4" d="M131.76 244.498C130.454 241.523 128.35 238.968 125.681 237.115C123.013 235.262 119.884 234.184 116.64 234C115.766 233.916 114.885 234.052 114.077 234.396C113.678 234.577 113.34 234.871 113.107 235.243C112.874 235.614 112.756 236.046 112.766 236.484C112.876 236.896 112.943 237.318 112.968 237.744C112.86 238.702 111.672 239.047 110.743 239.314C108.932 239.83 107.318 240.882 106.114 242.33C105.487 243.05 104.983 244.21 105.581 244.987C106.078 245.621 107.021 245.621 107.82 245.477C110.786 244.958 113.429 243.36 116.136 242.05C118.843 240.739 121.896 239.681 124.834 240.343C128.081 241.063 130.493 243.727 132.674 246.24" fill="black"/>
</g>
<path d="M226.8 242.46C226.72 242.573 226.631 242.679 226.534 242.777L225.706 243.626C225.353 243.994 224.906 244.433 224.366 244.922C223.826 245.412 223.229 245.995 222.523 246.578C220.889 247.974 219.185 249.286 217.418 250.51C213.082 253.516 208.387 255.971 203.443 257.818C201.161 258.653 199.073 259.308 197.294 259.762C196.409 260.006 195.595 260.172 194.882 260.33C194.17 260.489 193.558 260.611 193.046 260.69L191.887 260.878C191.753 260.911 191.615 260.926 191.477 260.921C191.603 260.865 191.736 260.826 191.873 260.806L193.025 260.546C193.522 260.446 194.134 260.309 194.839 260.129C195.545 259.949 196.351 259.769 197.222 259.502C198.986 259.02 201.06 258.343 203.321 257.494C208.221 255.625 212.885 253.186 217.217 250.229C219.211 248.861 220.946 247.543 222.35 246.37C223.07 245.808 223.675 245.246 224.222 244.771C224.77 244.296 225.238 243.871 225.605 243.518L226.476 242.719C226.574 242.62 226.682 242.533 226.8 242.46Z" fill="#263238"/>
<path d="M233.51 195.12C233.51 195.282 233.493 195.444 233.46 195.602C233.41 195.955 233.338 196.416 233.251 196.985L232.459 202.025C231.797 206.294 230.926 212.213 230.033 218.75C229.14 225.288 228.362 231.185 227.779 235.512L227.102 240.588C227.016 241.157 226.951 241.618 226.901 241.97C226.885 242.131 226.854 242.291 226.807 242.446C226.788 242.283 226.788 242.119 226.807 241.956C226.836 241.601 226.879 241.14 226.937 240.574C227.074 239.321 227.261 237.593 227.498 235.476C227.995 231.156 228.737 225.245 229.658 218.7C230.58 212.155 231.466 206.244 232.193 201.982C232.567 199.822 232.87 198.122 233.114 196.942C233.222 196.38 233.316 195.926 233.388 195.574C233.41 195.418 233.451 195.266 233.51 195.12Z" fill="#263238"/>
<path d="M209.146 266.299C209.243 266.043 209.373 265.801 209.534 265.579C209.808 265.154 210.211 264.542 210.722 263.786C211.752 262.289 213.214 260.244 214.891 258.026C216.569 255.809 218.153 253.865 219.334 252.482C219.917 251.762 220.399 251.237 220.774 250.855C221.148 250.474 221.314 250.279 221.335 250.301C221.212 250.533 221.062 250.751 220.889 250.949L219.535 252.72C218.419 254.16 216.871 256.118 215.215 258.322C213.559 260.525 212.047 262.541 210.967 264.002L209.657 265.68C209.513 265.907 209.341 266.115 209.146 266.299Z" fill="#263238"/>
<path d="M255.492 251.28C255.098 251.146 254.714 250.987 254.34 250.805C253.62 250.488 252.54 250.034 251.194 249.566C247.693 248.303 243.993 247.681 240.271 247.73C239.226 247.753 238.195 247.966 237.226 248.357C236.333 248.743 235.519 249.292 234.828 249.977C233.657 251.176 232.739 252.599 232.128 254.16C231.695 255.203 231.316 256.268 230.99 257.35C230.884 257.753 230.747 258.148 230.58 258.53C230.639 258.116 230.728 257.707 230.846 257.306C231.127 256.204 231.473 255.12 231.883 254.059C232.482 252.463 233.404 251.007 234.59 249.782C235.305 249.059 236.151 248.478 237.082 248.069C238.089 247.657 239.162 247.433 240.25 247.406C244.017 247.336 247.762 247.994 251.28 249.343C252.345 249.74 253.389 250.194 254.405 250.704C254.765 250.877 255.038 251.035 255.226 251.136C255.321 251.171 255.41 251.22 255.492 251.28Z" fill="#263238"/>
<path d="M250.106 240.005C250.106 240.084 248.976 240.048 247.226 240.358C246.188 240.54 245.167 240.81 244.174 241.164C241.74 242.043 239.511 243.407 237.622 245.174C236.853 245.898 236.147 246.685 235.512 247.529C234.432 248.969 233.95 249.991 233.878 249.955C233.952 249.704 234.056 249.462 234.187 249.235C234.319 248.953 234.468 248.679 234.634 248.414C234.837 248.058 235.058 247.712 235.296 247.378C235.915 246.499 236.614 245.679 237.384 244.93C239.279 243.091 241.559 241.697 244.058 240.847C245.075 240.509 246.121 240.268 247.183 240.127C247.637 240.048 248.054 240.034 248.414 240.005C248.724 239.988 249.034 239.988 249.343 240.005C249.597 239.978 249.853 239.978 250.106 240.005Z" fill="#263238"/>
<path d="M255.895 285.631C255.545 283.278 254.609 281.051 253.174 279.154C251.738 277.256 249.849 275.75 247.68 274.774C244.246 273.24 239.508 272.887 236.246 274.774C232.985 276.66 228.622 281.297 229.507 284.947L236.988 297.511C238.915 298.908 241.215 299.694 243.594 299.77C245.972 299.846 248.318 299.207 250.33 297.936C252.299 296.595 253.86 294.737 254.842 292.566C255.824 290.395 256.188 287.996 255.895 285.631V285.631Z" fill="#01B3EB" fill-opacity="0.99"/>
<g opacity="0.4">
<path opacity="0.4" d="M255.895 285.631C255.545 283.278 254.609 281.051 253.174 279.154C251.738 277.256 249.849 275.75 247.68 274.774C244.246 273.24 239.508 272.887 236.246 274.774C232.985 276.66 228.622 281.297 229.507 284.947L236.988 297.511C238.915 298.908 241.215 299.694 243.594 299.77C245.972 299.846 248.318 299.207 250.33 297.936C252.299 296.595 253.86 294.737 254.842 292.566C255.824 290.395 256.188 287.996 255.895 285.631Z" fill="black"/>
</g>
<path d="M253.562 294.79C253.562 294.79 253.829 294.286 254.282 293.393C254.91 292.105 255.344 290.732 255.571 289.318C255.898 287.218 255.71 285.071 255.024 283.061C254.818 282.483 254.578 281.918 254.304 281.369C254.017 280.8 253.692 280.252 253.332 279.727C251.837 277.489 249.709 275.747 247.219 274.723C244.039 273.519 240.528 273.519 237.348 274.723C236.001 275.209 234.73 275.886 233.575 276.732C232.762 277.344 232.344 277.726 232.315 277.697C232.402 277.59 232.499 277.491 232.603 277.402C232.879 277.122 233.173 276.86 233.482 276.617C234.62 275.706 235.892 274.977 237.254 274.457C240.489 273.182 244.083 273.159 247.334 274.392C248.612 274.904 249.804 275.608 250.87 276.48C251.933 277.355 252.862 278.381 253.627 279.526C253.99 280.069 254.319 280.634 254.614 281.218C254.891 281.782 255.131 282.364 255.334 282.96C256.026 285.022 256.192 287.225 255.816 289.368C255.559 290.802 255.073 292.185 254.376 293.465C254.131 293.911 253.894 294.242 253.75 294.466C253.703 294.582 253.64 294.691 253.562 294.79Z" fill="#263238"/>
<path d="M232.992 277.121C232.884 277.121 232.013 272.21 231.034 266.112C230.054 260.014 229.349 255.06 229.45 255.038C229.55 255.017 230.429 259.956 231.408 266.054C232.387 272.153 233.093 277.106 232.992 277.121Z" fill="#263238"/>
<g opacity="0.4">
<path opacity="0.4" d="M228.11 248.342L231.934 248.076C234.467 244.187 238.434 241.457 242.971 240.48C244.014 240.207 245.107 240.185 246.161 240.415C246.686 240.537 247.17 240.792 247.566 241.157C247.962 241.522 248.257 241.983 248.422 242.496C248.554 243.017 248.478 243.569 248.209 244.035C247.94 244.5 247.499 244.842 246.982 244.987C248.044 245.266 249.037 245.762 249.897 246.445C250.757 247.128 251.466 247.983 251.978 248.954C252.194 249.365 252.353 249.926 252.029 250.258C251.782 250.444 251.472 250.527 251.165 250.488C249.401 250.488 247.651 250.092 245.887 250.013C244.122 249.833 242.347 250.251 240.847 251.201C239.407 252.23 238.63 253.908 237.967 255.521C235.538 261.338 233.742 267.399 232.61 273.6C231.725 270.094 231.646 266.4 231.005 263.074C230.09 258.358 229.205 253.534 228.125 248.357" fill="black"/>
</g>
<g opacity="0.4">
<path opacity="0.4" d="M145.188 280.138C149.947 285.214 156.37 287.59 163.246 288.713C170.122 289.836 177.142 289.433 184.126 289.044C185.839 288.943 187.87 288.648 188.618 287.1C189.151 285.998 188.784 284.695 188.359 283.558C185.292 275.443 179.23 268.884 173.304 262.555C171.144 260.237 168.826 257.832 165.794 256.896C162.461 255.874 158.674 256.774 155.513 255.305C151.711 253.541 150.163 249.062 148.99 245.038L146.57 236.758C147.103 245.779 147.01 253.03 147.01 253.03C147.01 253.03 144.518 269.705 144.85 273.485C145.181 277.265 145.188 280.138 145.188 280.138Z" fill="black"/>
</g>
<path d="M192.586 177.206C192.264 177.172 191.948 177.102 191.642 176.998C191.038 176.846 190.202 176.58 189.122 176.206C186.385 175.223 183.759 173.954 181.289 172.418C178.817 170.883 176.512 169.092 174.413 167.076C173.614 166.298 172.973 165.636 172.591 165.168C172.361 164.941 172.158 164.687 171.986 164.412C172.244 164.61 172.485 164.829 172.706 165.067C173.138 165.514 173.786 166.133 174.607 166.882C178.873 170.79 183.829 173.869 189.223 175.961C190.253 176.364 191.102 176.681 191.693 176.861C192 176.95 192.299 177.065 192.586 177.206Z" fill="#263238"/>
<path d="M212.659 173.21C212.6 173.403 212.507 173.583 212.386 173.743C212.11 174.212 211.8 174.66 211.457 175.082C209.187 177.906 206.07 179.925 202.565 180.842C202.041 180.986 201.506 181.089 200.966 181.152C200.77 181.196 200.569 181.208 200.369 181.188C200.369 181.123 201.197 180.986 202.493 180.59C204.18 180.063 205.788 179.31 207.274 178.351C208.751 177.384 210.088 176.219 211.248 174.888C212.141 173.887 212.602 173.174 212.659 173.21Z" fill="#263238"/>
<path d="M216 177.653C214.898 180.475 212.814 182.804 210.132 184.212C211.267 183.269 212.351 182.267 213.379 181.21C214.314 180.071 215.189 178.883 216 177.653Z" fill="#263238"/>
<path d="M178.229 263.268L178.675 263.174C180.274 262.865 185.573 261.9 186.43 262.757C187.43 263.765 194.609 270.814 194.609 270.814C194.609 270.814 193.226 273.082 188.69 270.814C184.154 268.546 178.229 263.268 178.229 263.268Z" fill="#FFBE9D"/>
<path d="M168.048 248.947C168.828 248.429 169.778 248.231 170.701 248.394C171.623 248.558 172.447 249.07 173.002 249.826L194.882 278.849L189.274 282.96L167.177 254.218C166.87 253.821 166.648 253.366 166.525 252.88C166.402 252.393 166.381 251.887 166.462 251.392C166.544 250.898 166.727 250.425 167 250.004C167.273 249.584 167.63 249.224 168.048 248.947Z" fill="#263238"/>
<path d="M118.015 268.38C118.015 268.38 144 272.599 147.6 272.88C151.2 273.161 161.057 283.615 163.915 284.616C166.774 285.617 174.514 285.473 174.514 285.473C174.514 285.473 188.539 286.193 188.971 285.473C189.403 284.753 190.26 284.897 188.971 282.175C188.173 280.508 187.208 278.926 186.091 277.452C186.091 277.452 189.691 281.887 190.678 282.031C191.664 282.175 193.824 282.434 193.68 280.519C193.536 278.604 189.814 270.727 189.814 270.727C189.814 270.727 188.244 267.048 185.378 266.234C182.513 265.421 170.057 259.416 170.057 259.416H156.737L141.199 252.029C141.199 252.029 131.796 249.005 122.846 258.876C121.103 260.837 119.778 263.132 118.951 265.622L118.015 268.38Z" fill="#FFBE9D"/>
<path d="M192.312 276.66C192.15 276.426 192.019 276.172 191.923 275.904C191.671 275.328 191.362 274.622 191.002 273.787C190.642 272.952 190.159 271.8 189.67 270.634C189.265 269.326 188.474 268.172 187.402 267.322C186.816 266.918 186.191 266.576 185.537 266.299L183.701 265.478C182.52 264.96 181.454 264.514 180.562 264.139L178.402 263.254C178.135 263.161 177.88 263.04 177.638 262.894C177.919 262.939 178.194 263.014 178.459 263.117C178.97 263.29 179.719 263.549 180.619 263.887C181.519 264.226 182.614 264.658 183.802 265.162L185.652 265.968C186.334 266.246 186.984 266.599 187.589 267.019C188.719 267.915 189.546 269.136 189.958 270.518C190.426 271.692 190.843 272.765 191.21 273.694C191.578 274.622 191.801 275.263 192.024 275.854C192.148 276.112 192.244 276.382 192.312 276.66Z" fill="#EB996E"/>
<path d="M179.28 269.446C179.782 269.741 180.244 270.099 180.655 270.511C181.686 271.447 182.648 272.455 183.535 273.528C184.438 274.599 185.261 275.735 185.998 276.926C186.333 277.4 186.604 277.916 186.804 278.46C186.421 278.027 186.077 277.563 185.774 277.07C185.162 276.199 184.291 275.011 183.247 273.766C182.203 272.52 181.195 271.462 180.439 270.706C180.016 270.321 179.628 269.899 179.28 269.446Z" fill="#EB996E"/>
<path d="M186.674 285.689C186.481 285.65 186.295 285.577 186.127 285.473C185.65 285.231 185.192 284.952 184.759 284.638C183.362 283.567 182.089 282.342 180.965 280.987C179.618 279.439 178.416 278.028 177.566 276.991C177.076 276.455 176.631 275.879 176.234 275.27C176.789 275.74 177.299 276.258 177.761 276.818C178.668 277.812 179.921 279.194 181.246 280.735C182.358 282.07 183.587 283.304 184.918 284.422C185.962 285.257 186.703 285.638 186.674 285.689Z" fill="#EB996E"/>
<path d="M178.956 285.674C178.481 285.515 178.03 285.289 177.617 285.005C176.58 284.391 175.58 283.718 174.622 282.989C173.665 282.261 172.747 281.485 171.871 280.663C171.484 280.343 171.138 279.975 170.842 279.569C170.921 279.482 172.627 281.009 174.852 282.694C177.077 284.378 179.014 285.581 178.956 285.674Z" fill="#EB996E"/>
<path d="M221.587 296.474C221.587 296.474 219.305 292.946 218.988 291.686C218.671 290.426 218.988 284.429 214.783 285.372V285.84C214.891 286.351 214.783 298.548 214.783 298.548L221.587 296.474Z" fill="#FFBE9D"/>
<path d="M167.71 302.861C167.71 302.861 163.829 338.674 205.762 337.63C239.947 336.78 239.35 303.458 239.35 303.458L167.71 302.861Z" fill="#01B3EB" fill-opacity="0.99"/>
<path d="M202.903 312.646C224.483 312.646 241.978 308.416 241.978 303.199C241.978 297.982 224.483 293.753 202.903 293.753C181.323 293.753 163.829 297.982 163.829 303.199C163.829 308.416 181.323 312.646 202.903 312.646Z" fill="#01B3EB" fill-opacity="0.99"/>
<path opacity="0.4" d="M203.486 308.83C223.293 308.83 239.35 306.157 239.35 302.861C239.35 299.564 223.293 296.892 203.486 296.892C183.68 296.892 167.623 299.564 167.623 302.861C167.623 306.157 183.68 308.83 203.486 308.83Z" fill="black"/>
<path d="M240.653 305.899L240.48 306L239.998 306.302C239.573 306.569 238.925 306.936 238.075 307.368C235.657 308.578 233.118 309.532 230.501 310.212C226.619 311.192 222.681 311.928 218.707 312.415C213.836 312.964 208.935 313.205 204.034 313.135C198.828 313.092 193.86 312.919 189.36 312.523C185.368 312.193 181.405 311.577 177.502 310.68C174.872 310.075 172.292 309.271 169.783 308.275C168.89 307.937 168.221 307.606 167.76 307.404L167.249 307.159C167.126 307.109 167.069 307.073 167.076 307.066C167.14 307.082 167.203 307.104 167.263 307.13L167.796 307.339C168.264 307.519 168.934 307.822 169.834 308.138C172.355 309.078 174.939 309.84 177.566 310.421C181.462 311.278 185.412 311.865 189.389 312.178C193.882 312.552 198.835 312.718 204.041 312.761C208.925 312.822 213.809 312.582 218.664 312.041C222.625 311.575 226.554 310.868 230.429 309.924C233.04 309.272 235.579 308.363 238.01 307.21C238.86 306.792 239.522 306.454 239.954 306.209L240.458 305.935C240.588 305.921 240.646 305.892 240.653 305.899Z" fill="#263238"/>
<path d="M216.72 302.054C216.72 302.054 220.997 287.719 222.48 285.811C223.697 284.234 232.315 277.711 235.274 275.501C236.004 274.951 236.832 274.547 237.715 274.313C240.646 273.542 243.576 273.024 248.4 275.112C249.922 275.786 251.291 276.763 252.422 277.983C253.554 279.204 254.424 280.643 254.981 282.211L238.889 292.212L238.262 298.98L225.302 295.675C225.365 294.995 225.233 294.31 224.921 293.702C224.921 293.702 220.802 303.682 216.72 302.054Z" fill="#FFBE9D"/>
<path d="M201.182 291.874C199.548 289.714 198.187 287.633 197.107 285.869C196.027 284.105 195.257 282.622 194.746 281.549C194.511 280.993 194.229 280.458 193.903 279.95C194.07 280.531 194.284 281.097 194.544 281.642C195.202 283.148 195.942 284.617 196.762 286.042C197.991 288.144 199.327 290.182 200.765 292.147C202.378 294.372 204.271 296.734 206.28 299.174C209.088 302.544 211.68 305.69 213.79 308.448H214.373C212.263 305.568 209.606 302.306 206.719 298.836C204.71 296.41 202.817 294.07 201.182 291.874Z" fill="#F5F5F5"/>
<path d="M190.901 281.606C191.082 282.178 191.308 282.734 191.578 283.27C192.046 284.335 192.722 285.869 193.522 287.777C195.598 292.75 197.408 297.831 198.943 302.998C199.505 305.021 200.102 306.986 200.808 308.808H201.384C200.664 306.958 200.074 304.956 199.483 302.846C197.954 297.656 196.086 292.571 193.889 287.626C193.039 285.732 192.305 284.22 191.779 283.183C191.529 282.635 191.235 282.108 190.901 281.606Z" fill="#F5F5F5"/>
<path d="M192.312 279.886C192.525 280.452 192.782 281.001 193.082 281.527C193.615 282.571 194.4 284.069 195.386 285.912C197.366 289.591 200.138 294.667 203.515 300.089C205.474 303.242 207.439 306.13 209.275 308.657H209.88C208.051 306.058 206.035 303.07 204.019 299.808C200.65 294.401 197.827 289.368 195.761 285.739L193.298 281.419C193.012 280.882 192.682 280.369 192.312 279.886Z" fill="#F5F5F5"/>
<path d="M223.798 304.495C222.375 301.133 220.2 298.143 217.44 295.754C214.969 293.613 212.319 291.686 209.52 289.994C206.935 288.36 204.48 286.877 202.392 285.372C199.046 283.001 196.004 280.227 193.334 277.114C192.391 276.012 191.693 275.119 191.232 274.514L190.699 273.794C190.646 273.711 190.58 273.636 190.505 273.571C190.544 273.664 190.595 273.751 190.656 273.83L191.138 274.55C191.578 275.184 192.24 276.098 193.169 277.229C195.79 280.417 198.813 283.254 202.162 285.667C204.271 287.201 206.698 288.713 209.268 290.362C212.035 292.058 214.653 293.984 217.094 296.122C219.793 298.465 221.919 301.396 223.308 304.69C223.722 305.67 224.043 306.687 224.266 307.728L224.827 307.67C224.582 306.583 224.238 305.52 223.798 304.495Z" fill="#F5F5F5"/>
<path d="M222.48 306.871C221.541 304.499 220.244 302.285 218.635 300.305C216.653 297.901 214.407 295.727 211.939 293.825C209.354 291.773 206.77 290.002 204.466 288.338C202.162 286.675 200.146 285.12 198.504 283.723C197.218 282.621 195.997 281.445 194.846 280.202C194.449 279.72 194.023 279.26 193.572 278.827C193.636 278.979 193.724 279.12 193.831 279.245C194.011 279.504 194.299 279.878 194.681 280.346C195.775 281.655 196.964 282.883 198.238 284.018C200.13 285.695 202.105 287.277 204.156 288.756C206.453 290.448 209.023 292.234 211.586 294.264C214.021 296.139 216.249 298.268 218.232 300.614C219.829 302.539 221.134 304.689 222.106 306.994C222.235 307.303 222.343 307.606 222.451 307.901L222.826 307.865C222.739 307.555 222.638 307.224 222.48 306.871Z" fill="#F5F5F5"/>
<path d="M203.623 303.538C200.858 298.498 198.533 293.803 196.884 290.398L194.94 286.366C194.727 285.865 194.472 285.383 194.177 284.926C194.318 285.457 194.506 285.975 194.738 286.474C195.142 287.453 195.739 288.857 196.517 290.585C198.079 294.034 200.354 298.75 203.119 303.826C204.062 305.546 204.991 307.195 205.891 308.75H206.51C205.582 307.087 204.61 305.352 203.623 303.538Z" fill="#F5F5F5"/>
<path d="M209.376 297.072C205.497 293.254 201.83 289.228 198.389 285.012C197.071 283.392 196.034 282.06 195.307 281.138C194.959 280.629 194.572 280.147 194.148 279.698C194.434 280.236 194.764 280.749 195.134 281.232C195.804 282.197 196.79 283.572 198.079 285.228C201.436 289.547 205.077 293.636 208.98 297.468C211.255 299.722 213.566 301.709 215.503 303.66C216.906 305.037 218.172 306.546 219.283 308.167H219.758C218.648 306.414 217.346 304.788 215.878 303.322C213.934 301.306 211.637 299.311 209.376 297.072Z" fill="#F5F5F5"/>
<path d="M197.554 306.986C196.596 304.106 195.948 301.313 195.343 298.786C194.177 293.746 193.09 289.62 191.93 286.934C191.389 285.522 190.696 284.173 189.864 282.91C189.864 282.91 189.864 283.01 189.979 283.183L190.382 283.961C190.721 284.645 191.21 285.66 191.729 287.014C192.816 289.714 193.838 293.796 194.947 298.879C195.538 301.414 196.164 304.2 197.107 307.13C197.294 307.685 197.503 308.246 197.712 308.815H198.23C198 308.203 197.762 307.584 197.554 306.986Z" fill="#F5F5F5"/>
<path d="M226.57 298.289C226.627 298.281 226.685 298.281 226.742 298.289C226.91 298.28 227.079 298.28 227.246 298.289C227.686 298.325 228.334 298.397 229.162 298.512C231.506 298.835 233.82 299.348 236.081 300.046C236.825 300.308 237.547 300.629 238.241 301.003C238.63 301.207 238.968 301.498 239.227 301.853C239.357 302.053 239.442 302.279 239.477 302.515C239.512 302.751 239.495 302.992 239.429 303.221C239.35 303.45 239.227 303.662 239.066 303.843C238.906 304.025 238.711 304.173 238.493 304.279C238.099 304.538 237.682 304.76 237.247 304.942C236.356 305.323 235.439 305.643 234.504 305.899C230.357 307.027 226.131 307.838 221.861 308.326C214.107 309.152 206.299 309.368 198.511 308.974C195.523 308.858 193.111 308.714 191.441 308.614L189.518 308.477L189.022 308.434C188.965 308.446 188.906 308.446 188.849 308.434H189.526L191.448 308.498L198.518 308.736C206.292 309.06 214.079 308.82 221.818 308.016C226.068 307.526 230.277 306.727 234.41 305.626C235.332 305.375 236.236 305.064 237.118 304.697C237.538 304.527 237.94 304.317 238.32 304.07C238.693 303.895 238.984 303.583 239.134 303.199C239.19 303.012 239.204 302.814 239.177 302.62C239.15 302.426 239.081 302.241 238.975 302.076C238.743 301.758 238.443 301.495 238.097 301.306C237.418 300.937 236.713 300.619 235.987 300.355C233.744 299.639 231.45 299.09 229.126 298.714C228.305 298.577 227.686 298.476 227.232 298.418C226.778 298.361 226.57 298.303 226.57 298.289Z" fill="#263238"/>
<path d="M230.062 289.44C230.126 289.526 228.787 290.57 227.254 291.989C225.72 293.407 224.575 294.66 224.489 294.588C225.959 292.495 227.859 290.74 230.062 289.44Z" fill="#EB996E"/>
<path d="M229.745 295.114C229.004 294.833 228.224 294.67 227.434 294.631C226.643 294.705 225.869 294.899 225.137 295.207C225.137 295.171 225.295 294.955 225.698 294.725C226.224 294.427 226.815 294.266 227.419 294.257C228.026 294.242 228.627 294.378 229.169 294.653C229.579 294.869 229.774 295.078 229.745 295.114Z" fill="#EB996E"/>
<path d="M99.1368 146.506C98.7192 146.837 75.888 157.09 75.888 157.09C75.888 157.09 82.1736 170.438 94.3704 164.491C105.509 159.062 99.1368 146.506 99.1368 146.506Z" fill="#455A64"/>
<path d="M98.8848 72.7704C99.396 72.7704 99.8208 90.4968 99.8208 112.37C99.8208 134.244 99.396 151.97 98.8848 151.97C98.3736 151.97 97.9416 134.251 97.9416 112.37C97.9416 90.4896 98.3664 72.7704 98.8848 72.7704Z" fill="#455A64"/>
<path d="M82.6344 126.245C82.2168 126.576 59.3856 136.829 59.3856 136.829C59.3856 136.829 65.6712 150.178 77.8752 144.23C89.0136 138.802 82.6344 126.245 82.6344 126.245Z" fill="#455A64"/>
<path d="M82.3824 71.4312C82.9008 71.4312 83.3184 84.924 83.3184 101.563C83.3184 118.202 82.9008 131.695 82.3824 131.695C81.864 131.695 81.4464 118.202 81.4464 101.563C81.4464 84.924 81.864 71.4312 82.3824 71.4312Z" fill="#455A64"/>
<path d="M62.64 106.265C62.2152 106.589 39.384 116.842 39.384 116.842C39.384 116.842 45.6768 130.19 57.8736 124.243C69.0264 118.8 62.64 106.265 62.64 106.265Z" fill="#455A64"/>
<path d="M62.3952 73.44C62.9136 73.44 63.3312 82.0008 63.3312 92.556C63.3312 103.111 62.9136 111.679 62.3952 111.679C61.8768 111.679 61.4592 103.118 61.4592 92.556C61.4592 81.9936 61.8768 73.44 62.3952 73.44Z" fill="#455A64"/>
<path d="M126.043 150.142C138.927 150.142 149.371 139.697 149.371 126.814C149.371 113.93 138.927 103.486 126.043 103.486C113.16 103.486 102.715 113.93 102.715 126.814C102.715 139.697 113.16 150.142 126.043 150.142Z" fill="#455A64"/>
<path d="M125.172 106.099L123.343 76.0968H131.94L129.557 106.099H125.172Z" fill="#455A64"/>
<path d="M135.857 143.179L135.706 143.287L135.23 143.561C135.022 143.676 134.77 143.842 134.453 143.993L133.344 144.49C130.94 145.463 128.363 145.938 125.77 145.886C121.91 145.821 118.155 144.624 114.97 142.445C113.095 141.143 111.493 139.487 110.254 137.57C107.568 133.429 106.509 128.441 107.28 123.566C107.628 121.312 108.413 119.148 109.591 117.194C111.62 113.898 114.572 111.27 118.08 109.634C120.428 108.531 122.975 107.914 125.568 107.82H126.72C127.073 107.82 127.368 107.878 127.606 107.892L128.146 107.957C128.208 107.949 128.271 107.949 128.333 107.957H128.16H127.613C127.375 107.957 127.08 107.914 126.727 107.914H125.525C122.965 108.067 120.459 108.715 118.145 109.822C114.71 111.477 111.83 114.097 109.858 117.36C108.707 119.28 107.942 121.405 107.604 123.617C106.862 128.403 107.905 133.294 110.534 137.362C111.742 139.243 113.305 140.872 115.135 142.157C117.762 143.956 120.785 145.095 123.946 145.477C127.107 145.86 130.313 145.474 133.294 144.353L134.402 143.885C134.726 143.741 134.978 143.597 135.194 143.489L135.684 143.244L135.857 143.179Z" fill="#263238"/>
<path d="M32.5152 37.2888L40.7736 67.1688H75.7584L84.024 37.2888H32.5152Z" fill="#455A64"/>
<path d="M82.3824 43.2C82.3824 43.308 71.5824 43.3944 58.2696 43.3944C44.9568 43.3944 34.1568 43.3152 34.1568 43.2C34.1568 43.0848 44.9568 43.0128 58.2696 43.0128C71.5824 43.0128 82.3824 43.1064 82.3824 43.2Z" fill="#263238"/>
<path d="M88.7976 44.9928H81.5976L82.7496 41.868H88.7616C89.176 41.868 89.5734 42.0326 89.8664 42.3256C90.1594 42.6186 90.324 43.016 90.324 43.4304C90.3241 43.8386 90.1644 44.2306 89.8792 44.5226C89.5939 44.8146 89.2057 44.9834 88.7976 44.9928Z" fill="#263238"/>
<path d="M27.684 44.9928H34.848L33.7032 41.868H27.684C27.2696 41.868 26.8722 42.0326 26.5792 42.3256C26.2862 42.6186 26.1216 43.016 26.1216 43.4304C26.1216 43.8448 26.2862 44.2422 26.5792 44.5352C26.8722 44.8282 27.2696 44.9928 27.684 44.9928Z" fill="#263238"/>
<path d="M154.332 66.7656H23.6736V76.104H154.332V66.7656Z" fill="#01B3EB" fill-opacity="0.99"/>
<path d="M323.366 199.742C322.406 199.368 321.336 199.389 320.391 199.802C319.446 200.215 318.704 200.986 318.326 201.946L312.53 217.476L319.73 220.126L325.577 204.746C325.942 203.789 325.914 202.727 325.501 201.79C325.087 200.853 324.32 200.117 323.366 199.742Z" fill="#01B3EB" fill-opacity="0.99"/>
<path d="M323.208 204.653C323.208 204.981 323.111 205.301 322.928 205.574C322.746 205.846 322.487 206.058 322.184 206.183C321.881 206.309 321.548 206.341 321.226 206.276C320.905 206.212 320.61 206.053 320.379 205.821C320.147 205.589 319.99 205.293 319.927 204.971C319.864 204.65 319.898 204.317 320.024 204.014C320.151 203.712 320.364 203.453 320.637 203.272C320.91 203.091 321.231 202.995 321.559 202.997C321.777 202.996 321.992 203.038 322.193 203.121C322.394 203.204 322.576 203.326 322.73 203.48C322.883 203.634 323.004 203.817 323.087 204.018C323.169 204.22 323.21 204.435 323.208 204.653Z" fill="#FAFAFA"/>
<path d="M319.104 214.834C319.105 215.161 319.01 215.482 318.828 215.756C318.647 216.029 318.389 216.242 318.087 216.369C317.784 216.495 317.451 216.529 317.129 216.466C316.808 216.403 316.512 216.246 316.28 216.014C316.047 215.783 315.889 215.488 315.824 215.167C315.76 214.845 315.792 214.512 315.917 214.209C316.043 213.906 316.255 213.647 316.527 213.464C316.8 213.282 317.12 213.185 317.448 213.185C317.886 213.185 318.306 213.358 318.616 213.667C318.927 213.976 319.102 214.396 319.104 214.834Z" fill="#FAFAFA"/>
<path d="M312.545 217.476L301.378 246.607L315.122 246.434L326.333 222.365L312.545 217.476Z" fill="#E0E0E0"/>
<path d="M322.927 246.607H284.407V290.909H322.927V246.607Z" fill="#01B3EB" fill-opacity="0.99"/>
<path d="M322.927 257.638C322.927 257.746 314.287 257.832 303.667 257.832C293.047 257.832 284.4 257.76 284.4 257.638C284.4 257.515 293.04 257.45 303.66 257.45C314.28 257.45 322.927 257.537 322.927 257.638Z" fill="white"/>
<path d="M322.927 262.411C322.927 262.512 314.287 262.598 303.667 262.598C293.047 262.598 284.4 262.512 284.4 262.411C284.4 262.31 293.04 262.224 303.66 262.224C314.28 262.224 322.927 262.303 322.927 262.411Z" fill="white"/>
<path d="M322.927 267.178C322.927 267.286 314.287 267.365 303.667 267.365C293.047 267.365 284.407 267.286 284.407 267.178C284.407 267.07 293.047 266.99 303.667 266.99C314.287 266.99 322.927 267.077 322.927 267.178Z" fill="white"/>
<path d="M322.927 271.951C322.927 272.052 314.287 272.138 303.667 272.138C293.047 272.138 284.407 272.052 284.407 271.951C284.407 271.85 293.047 271.764 303.667 271.764C314.287 271.764 322.927 271.843 322.927 271.951Z" fill="white"/>
<path d="M322.927 276.718C322.927 276.818 314.287 276.905 303.667 276.905C293.047 276.905 284.407 276.818 284.407 276.718C284.407 276.617 293.047 276.53 303.667 276.53C314.287 276.53 322.927 276.617 322.927 276.718Z" fill="white"/>
<path d="M322.927 281.52C322.927 281.628 314.287 281.707 303.667 281.707C293.047 281.707 284.4 281.592 284.4 281.52C284.4 281.448 293.04 281.333 303.66 281.333C314.28 281.333 322.927 281.383 322.927 281.52Z" fill="white"/>
<path d="M261.77 222.221L287.525 224.28C287.525 224.28 288.245 211.774 276.192 210.449C264.139 209.124 261.77 222.221 261.77 222.221Z" fill="#455A64"/>
<path d="M294.588 246.607C294.098 246.773 291.42 240.358 288.612 232.272C285.804 224.186 283.918 217.483 284.407 217.318C284.897 217.152 287.568 223.567 290.383 231.653C293.198 239.738 295.078 246.434 294.588 246.607Z" fill="#455A64"/>
<path d="M296.129 331.445C295.962 331.499 295.791 331.538 295.618 331.56L294.142 331.805L293.076 331.97C292.68 332.021 292.255 332.05 291.794 332.1C290.873 332.179 289.829 332.316 288.67 332.33L286.848 332.388C286.214 332.388 285.552 332.388 284.868 332.388C283.5 332.388 282.046 332.251 280.548 332.129C273.881 331.485 267.373 329.71 261.302 326.88C259.927 326.203 258.602 325.577 257.422 324.878C256.831 324.54 256.248 324.23 255.708 323.892L254.16 322.877C253.166 322.272 252.338 321.617 251.59 321.084C251.215 320.81 250.87 320.566 250.553 320.321L249.718 319.601L248.573 318.643C248.436 318.537 248.308 318.419 248.191 318.29C248.347 318.37 248.492 318.469 248.623 318.586L249.811 319.486L250.661 320.148C250.978 320.386 251.33 320.623 251.712 320.868C252.468 321.386 253.303 322.02 254.304 322.61L255.845 323.568C256.385 323.899 256.968 324.194 257.558 324.526C258.739 325.21 260.057 325.822 261.432 326.491C264.463 327.856 267.592 328.992 270.792 329.89C273.996 330.744 277.259 331.355 280.555 331.718C282.074 331.848 283.522 331.999 284.875 332.006C285.559 332.006 286.214 332.071 286.841 332.057L288.662 332.021C289.814 332.021 290.858 331.906 291.78 331.848C292.234 331.848 292.666 331.79 293.054 331.747L294.12 331.618L295.603 331.438C295.778 331.427 295.954 331.429 296.129 331.445Z" fill="#455A64"/>
<path d="M265.471 328.608C260.071 327.888 253.015 329.976 248.969 333.648C254.707 332.877 260.281 331.175 265.471 328.608Z" fill="#455A64"/>
<path d="M265.745 328.673C267.725 323.59 264.802 316.433 264.802 316.433C264.233 315.468 264.485 323.035 265.745 328.673Z" fill="#455A64"/>
<path d="M257.22 324.641C258.66 320.911 256.565 315.67 256.565 315.67C256.162 314.95 256.327 320.515 257.22 324.641Z" fill="#455A64"/>
<path d="M273.377 330.48C274.817 326.75 272.722 321.509 272.722 321.509C272.311 320.789 272.477 326.354 273.377 330.48Z" fill="#455A64"/>
<path d="M257.386 324.72C253.361 324.187 248.112 325.742 245.11 328.464C249.378 327.893 253.525 326.629 257.386 324.72Z" fill="#455A64"/>
<path d="M274.198 331.049C268.488 331.128 261.504 334.368 257.868 338.767C263.695 337.101 269.211 334.494 274.198 331.049Z" fill="#455A64"/>
<path d="M295.956 303.782C294.792 302.034 293.176 300.633 291.28 299.729C289.384 298.825 287.279 298.451 285.188 298.646C283.096 298.842 281.097 299.6 279.401 300.84C277.706 302.08 276.378 303.756 275.558 305.69C274.251 309.002 274.31 312.697 275.724 315.965C277.158 319.196 279.493 321.946 282.449 323.885C290.059 329.069 301.097 328.831 308.167 322.934C310.795 320.774 312.905 317.758 313.387 314.374C313.667 312.405 313.391 310.397 312.59 308.577C311.789 306.757 310.495 305.197 308.854 304.074C307.213 302.951 305.291 302.309 303.304 302.22C301.318 302.132 299.346 302.601 297.612 303.574" fill="#01B3EB" fill-opacity="0.99"/>
<path d="M295.985 303.768C295.732 302.842 295.16 302.036 294.369 301.493C293.578 300.95 292.619 300.705 291.665 300.802L294.214 303.833C293.521 303.928 292.866 304.205 292.315 304.637C291.765 305.068 291.339 305.638 291.082 306.288C290.966 306.598 290.93 307.008 291.226 307.195C291.33 307.23 291.441 307.241 291.55 307.229C291.66 307.216 291.765 307.18 291.859 307.123L294.955 305.842C295.168 307.569 295.801 309.218 296.798 310.644C297.507 309.128 297.903 307.485 297.965 305.813L301.385 307.325C301.115 306.341 300.555 305.46 299.779 304.798C300.799 304.604 301.775 304.226 302.659 303.682C302.926 303.516 303.214 303.235 303.098 302.962C302.983 302.688 302.724 302.681 302.486 302.659C300.228 302.445 297.957 302.917 295.97 304.013" fill="#455A64"/>
<path d="M295.762 305.05C296.292 301.589 296.001 298.052 294.912 294.725C295.726 294.545 296.726 294.422 297.259 295.07C297.523 295.478 297.644 295.962 297.605 296.446C297.644 299.721 297.022 302.971 295.776 306" fill="#455A64"/>
<path d="M279.158 317.441C278.956 317.29 278.776 317.11 278.626 316.908C278.183 316.378 277.799 315.801 277.481 315.187C276.398 313.146 276.017 310.806 276.394 308.527C276.771 306.248 277.887 304.156 279.569 302.573C280.064 302.092 280.612 301.67 281.203 301.313C281.414 301.172 281.641 301.059 281.88 300.974C281.136 301.525 280.426 302.122 279.756 302.76C278.173 304.341 277.126 306.378 276.76 308.585C276.395 310.792 276.73 313.058 277.718 315.065C278.148 315.886 278.629 316.68 279.158 317.441Z" fill="white"/>
<path d="M282.593 320.033C282.557 320.126 282.017 320.033 281.47 319.622C280.922 319.212 280.642 318.758 280.75 318.694C280.858 318.629 281.218 318.96 281.714 319.32C282.211 319.68 282.629 319.932 282.593 320.033Z" fill="white"/>
<path d="M137.902 264.276C137.585 264.348 139.91 276.026 139.91 276.026H145.858L148.486 264.744C145.076 263.575 141.401 263.412 137.902 264.276Z" fill="#455A64"/>
<path d="M134.316 330.019C134.316 330.019 125.561 305.496 126.785 298.843C128.009 292.19 130.637 290.786 132.739 288.684C134.842 286.582 136.591 284.832 137.117 282.73C137.642 280.627 137.117 272.225 137.117 272.225C137.117 272.225 135.54 269.77 136.066 268.898C136.591 268.027 149.551 268.898 149.551 268.898C149.478 269.967 149.114 270.995 148.5 271.872C148.5 271.872 148.154 281.678 148.68 282.73C149.206 283.781 157.262 292.716 158.486 297.266C159.71 301.817 153.648 330.019 153.648 330.019H134.316Z" fill="#F5F5F5"/>
<path d="M134.316 330.019H134.654H135.641H139.442L153.648 329.954L153.533 330.048C154.253 326.484 155.081 322.445 155.902 318.002C156.722 313.56 157.579 308.707 158.177 303.502C158.314 302.198 158.436 300.881 158.465 299.534C158.589 298.187 158.3 296.833 157.637 295.654C156.298 293.159 154.734 290.793 152.964 288.583C152.086 287.431 151.164 286.286 150.235 285.134C149.774 284.551 149.306 283.975 148.853 283.37C148.731 283.214 148.618 283.05 148.514 282.881C148.442 282.688 148.393 282.488 148.37 282.283C148.316 281.904 148.282 281.522 148.27 281.138C148.133 278.107 148.226 275.04 148.313 271.922V271.872V271.829C148.442 271.613 148.586 271.382 148.709 271.109C149.059 270.438 149.27 269.703 149.328 268.949L149.501 269.129C146.549 268.942 143.626 268.798 140.767 268.747C139.366 268.697 137.963 268.752 136.57 268.913C136.438 268.934 136.312 268.978 136.195 269.042C136.132 269.159 136.102 269.291 136.109 269.424C136.13 269.75 136.203 270.071 136.325 270.374C136.572 271.001 136.876 271.603 137.232 272.174V272.218V272.261C137.362 274.5 137.455 276.703 137.462 278.87C137.479 279.949 137.439 281.029 137.34 282.103C137.205 283.177 136.801 284.2 136.166 285.077C135.57 285.924 134.903 286.719 134.172 287.453C133.452 288.173 132.732 288.893 132.012 289.577C131.279 290.217 130.586 290.902 129.938 291.629C129.329 292.347 128.811 293.137 128.398 293.983C127.627 295.625 127.096 297.368 126.821 299.16C126.731 300.017 126.731 300.881 126.821 301.738C126.878 302.58 126.994 303.415 127.109 304.229C127.616 307.226 128.275 310.197 129.082 313.128C130.522 318.485 131.875 322.704 132.804 325.606C133.279 327.046 133.646 328.147 133.898 328.918C134.021 329.285 134.107 329.573 134.179 329.774C134.251 329.976 134.266 330.07 134.266 330.07C134.22 329.979 134.182 329.885 134.15 329.789L133.834 328.939C133.567 328.219 133.178 327.082 132.689 325.642C131.717 322.762 130.32 318.55 128.851 313.186C128.131 310.507 127.375 307.541 126.835 304.272C126.713 303.451 126.598 302.616 126.533 301.752C126.436 300.876 126.436 299.993 126.533 299.117C126.808 297.293 127.344 295.518 128.124 293.846C128.547 292.975 129.077 292.16 129.701 291.42C130.354 290.682 131.053 289.987 131.796 289.339C132.516 288.67 133.236 287.95 133.92 287.222C134.638 286.499 135.293 285.716 135.878 284.882C136.48 284.05 136.861 283.079 136.987 282.06C137.08 280.999 137.119 279.935 137.102 278.87C137.102 276.71 136.994 274.514 136.865 272.282V272.369C136.487 271.778 136.169 271.151 135.914 270.497C135.782 270.153 135.701 269.792 135.677 269.424C135.664 269.21 135.722 268.997 135.842 268.819C136.005 268.673 136.208 268.58 136.426 268.553C137.847 268.384 139.279 268.326 140.71 268.38C143.59 268.423 146.47 268.567 149.465 268.762H149.76V268.942C149.705 269.761 149.482 270.56 149.105 271.289C148.976 271.536 148.834 271.777 148.68 272.009V271.915C148.594 275.018 148.5 278.093 148.63 281.095C148.645 281.466 148.678 281.836 148.73 282.204C148.749 282.371 148.785 282.535 148.838 282.694C148.932 282.838 149.026 282.982 149.141 283.133C149.58 283.723 150.055 284.299 150.516 284.875C151.445 286.034 152.366 287.179 153.245 288.338C155.029 290.569 156.603 292.96 157.946 295.481C158.629 296.712 158.927 298.118 158.803 299.52C158.803 300.881 158.645 302.213 158.501 303.516C157.896 308.736 157.01 313.596 156.19 318.031C155.369 322.466 154.526 326.52 153.756 330.077V330.178H153.655L139.392 330.113H135.612H134.647L134.316 330.019Z" fill="#263238"/>
<path d="M151.97 327.478C154.189 319.283 155.659 310.904 156.362 302.443C156.442 301.478 156.442 300.362 155.707 299.722C154.814 298.944 153.454 299.362 152.323 299.722C149.001 300.776 145.464 300.964 142.049 300.269C138.73 299.549 135.432 298.066 132.091 298.62C131.666 298.656 131.252 298.777 130.875 298.976C130.498 299.175 130.165 299.448 129.895 299.779C129.355 300.586 129.485 301.644 129.636 302.602C130.954 310.838 133.639 320.299 135.821 327.478H151.97Z" fill="#01B3EB" fill-opacity="0.99"/>
<path d="M154.166 300.737C153.986 300.989 153.775 301.219 153.54 301.421C152.923 302.005 152.258 302.537 151.553 303.012C149.227 304.614 146.551 305.633 143.75 305.985C140.948 306.337 138.103 306.012 135.454 305.035C134.653 304.75 133.877 304.399 133.135 303.984C132.854 303.849 132.593 303.677 132.358 303.473C132.358 303.408 133.524 304.114 135.54 304.79C138.16 305.671 140.945 305.95 143.688 305.604C146.431 305.259 149.06 304.299 151.38 302.796C153.194 301.68 154.116 300.679 154.166 300.737Z" fill="white"/>
</svg>
